<svg width="13" height="13" viewBox="0 0 13 13" fill="none" xmlns="http://www.w3.org/2000/svg">
<path d="M10.409 4.10078C10.409 4.36538 10.2669 4.60548 10.0415 4.72798L9.18889 5.18858L8.46369 5.57568L6.95939 6.38908C6.79769 6.47728 6.62129 6.52138 6.43999 6.52138C6.25869 6.52138 6.08229 6.47728 5.92059 6.38908L2.83849 4.72798C2.61309 4.60548 2.47099 4.36538 2.47099 4.10078C2.47099 3.83618 2.61309 3.59608 2.83849 3.47358L3.80379 2.95418L4.57309 2.53768L5.92059 1.81248C6.24399 1.63608 6.63599 1.63608 6.95939 1.81248L10.0415 3.47358C10.2669 3.59608 10.409 3.83618 10.409 4.10078Z" fill="white"/>
<path d="M5.41099 6.96734L2.54449 5.53654C2.32399 5.42384 2.06919 5.43854 1.85849 5.56594C1.64779 5.69334 1.52529 5.91874 1.52529 6.16374V8.87344C1.52529 9.34384 1.78499 9.76524 2.20639 9.97594L5.07289 11.4067C5.17089 11.4557 5.27869 11.4802 5.38649 11.4802C5.51389 11.4802 5.64129 11.4459 5.75399 11.3724C5.96469 11.245 6.08719 11.0196 6.08719 10.7746V8.06494C6.09209 7.59944 5.83239 7.17804 5.41099 6.96734Z" fill="white"/>
<path d="M11.3547 6.1637V8.8734C11.3547 9.3389 11.095 9.7603 10.6736 9.971L7.80709 11.4067C7.70909 11.4557 7.60129 11.4802 7.49349 11.4802C7.36609 11.4802 7.23869 11.4459 7.12109 11.3724C6.91529 11.245 6.78789 11.0196 6.78789 10.7746V8.0698C6.78789 7.5994 7.04759 7.178 7.46899 6.9673L8.52249 6.443L9.25749 6.0755L10.3355 5.5365C10.556 5.4238 10.8108 5.4336 11.0215 5.5659C11.2273 5.6933 11.3547 5.9187 11.3547 6.1637Z" fill="white"/>
<path d="M9.18889 5.1885L8.46369 5.5756L3.80379 2.9541L4.57309 2.5376L9.07129 5.0758C9.12029 5.1052 9.15949 5.1444 9.18889 5.1885Z" fill="white"/>
<path d="M9.25749 6.07544V7.18774C9.25749 7.38864 9.09089 7.55524 8.88999 7.55524C8.68909 7.55524 8.52249 7.38864 8.52249 7.18774V6.44294L9.25749 6.07544Z" fill="white"/>
</svg>
