<svg width="13" height="14" viewBox="0 0 13 14" fill="none" xmlns="http://www.w3.org/2000/svg">
<path d="M10.6525 4.2434C10.6525 4.5269 10.5002 4.78415 10.2587 4.9154L9.34525 5.4089L8.56825 5.82365L6.9565 6.69515C6.78325 6.78965 6.59425 6.8369 6.4 6.8369C6.20575 6.8369 6.01675 6.78965 5.8435 6.69515L2.54125 4.9154C2.29975 4.78415 2.1475 4.5269 2.1475 4.2434C2.1475 3.9599 2.29975 3.70265 2.54125 3.5714L3.5755 3.0149L4.39975 2.56865L5.8435 1.79165C6.19 1.60265 6.61 1.60265 6.9565 1.79165L10.2587 3.5714C10.5002 3.70265 10.6525 3.9599 10.6525 4.2434Z" fill="white"/>
<path d="M5.2975 7.31448L2.22625 5.78148C1.99 5.66073 1.717 5.67648 1.49125 5.81298C1.2655 5.94948 1.13425 6.19098 1.13425 6.45348V9.35673C1.13425 9.86073 1.4125 10.3122 1.864 10.538L4.93525 12.071C5.04025 12.1235 5.15575 12.1497 5.27125 12.1497C5.40775 12.1497 5.54425 12.113 5.665 12.0342C5.89075 11.8977 6.022 11.6562 6.022 11.3937V8.49048C6.02725 7.99173 5.749 7.54023 5.2975 7.31448Z" fill="white"/>
<path d="M11.6657 6.45356V9.35681C11.6657 9.85556 11.3875 10.3071 10.936 10.5328L7.86475 12.0711C7.75975 12.1236 7.64425 12.1498 7.52875 12.1498C7.39225 12.1498 7.25575 12.1131 7.12975 12.0343C6.90925 11.8978 6.77275 11.6563 6.77275 11.3938V8.49581C6.77275 7.99181 7.051 7.54031 7.5025 7.31456L8.63125 6.75281L9.41875 6.35906L10.5737 5.78156C10.81 5.66081 11.083 5.67131 11.3087 5.81306C11.5292 5.94956 11.6657 6.19106 11.6657 6.45356Z" fill="white"/>
<path d="M9.34525 5.40885L8.56825 5.8236L3.5755 3.01485L4.39975 2.5686L9.21925 5.2881C9.27175 5.3196 9.31375 5.3616 9.34525 5.40885Z" fill="white"/>
<path d="M9.41875 6.35913V7.55088C9.41875 7.76613 9.24025 7.94463 9.025 7.94463C8.80975 7.94463 8.63125 7.76613 8.63125 7.55088V6.75288L9.41875 6.35913Z" fill="white"/>
</svg>
