<svg width="31" height="31" viewBox="0 0 31 31" fill="none" xmlns="http://www.w3.org/2000/svg">
<path d="M7.62939e-06 10.24C7.62939e-06 4.58461 4.58461 0 10.24 0H20.48C26.1354 0 30.72 4.5846 30.72 10.24V20.48C30.72 26.1354 26.1354 30.72 20.48 30.72H10.24C4.58462 30.72 7.62939e-06 26.1354 7.62939e-06 20.48V10.24Z" fill="#F5F5F7"/>
<path fill-rule="evenodd" clip-rule="evenodd" d="M15.5047 23.3681L15.5057 23.3674L15.5072 23.3662L15.512 23.3627L15.5278 23.351C15.5411 23.341 15.56 23.3268 15.584 23.3085C15.632 23.272 15.7007 23.219 15.787 23.1505C15.9596 23.0136 16.2033 22.8143 16.4946 22.5601C17.0758 22.0526 17.8523 21.3207 18.6312 20.4231C20.1608 18.6603 21.8267 16.1138 21.8267 13.2933C21.8267 9.52308 18.7703 6.46667 15 6.46667C11.2297 6.46667 8.17334 9.52308 8.17334 13.2933C8.17334 16.1138 9.83926 18.6603 11.3688 20.4231C12.1477 21.3207 12.9242 22.0526 13.5054 22.5601C13.7967 22.8143 14.0404 23.0136 14.213 23.1505C14.2993 23.219 14.368 23.272 14.416 23.3085C14.44 23.3268 14.4589 23.341 14.4722 23.351L14.488 23.3627L14.4928 23.3662L14.4949 23.3678C14.7953 23.5881 15.2043 23.5884 15.5047 23.3681ZM14.9981 15.4267C16.1763 15.4267 17.1315 14.4715 17.1315 13.2933C17.1315 12.1151 16.1763 11.16 14.9981 11.16C13.8199 11.16 12.8648 12.1151 12.8648 13.2933C12.8648 14.4715 13.8199 15.4267 14.9981 15.4267Z" fill="#FF6700"/>
</svg>
