<svg width="31" height="31" viewBox="0 0 31 31" fill="none" xmlns="http://www.w3.org/2000/svg">
<path d="M0.119999 10.24C0.119999 4.58461 4.7046 0 10.36 0H20.6C26.2554 0 30.84 4.5846 30.84 10.24V20.48C30.84 26.1354 26.2554 30.72 20.6 30.72H10.36C4.70461 30.72 0.119999 26.1354 0.119999 20.48V10.24Z" fill="#F5F5F7"/>
<path d="M8.29333 7.32001C7.82205 7.32001 7.44 7.70206 7.44 8.17334C7.44 16.1852 13.9349 22.68 21.9467 22.68C22.4179 22.68 22.8 22.298 22.8 21.8267V17.7307C22.8 17.3538 22.5528 17.0216 22.1919 16.9133L18.7785 15.8893C18.4778 15.7991 18.1519 15.8813 17.9299 16.1033L16.9304 17.1028C15.2952 16.1821 13.9379 14.8248 13.0172 13.1896L14.0167 12.1901C14.2387 11.9681 14.3209 11.6422 14.2307 11.3415L13.2067 7.92814C13.0984 7.56719 12.7662 7.32001 12.3893 7.32001H8.29333Z" fill="#FF6700"/>
</svg>
