<svg width="31" height="31" viewBox="0 0 31 31" fill="none" xmlns="http://www.w3.org/2000/svg">
<path d="M7.62939e-06 10.24C7.62939e-06 4.58461 4.58461 0 10.24 0H20.48C26.1354 0 30.72 4.5846 30.72 10.24V20.48C30.72 26.1354 26.1354 30.72 20.48 30.72H10.24C4.58462 30.72 7.62939e-06 26.1354 7.62939e-06 20.48V10.24Z" fill="#F5F5F7"/>
<path d="M7.02494 8.22573L15 14.7508L22.9751 8.22573C22.8831 8.19184 22.7837 8.17334 22.68 8.17334H7.32001C7.21629 8.17334 7.1169 8.19184 7.02494 8.22573Z" fill="#FF6700"/>
<path d="M6.46667 9.97408V20.9733C6.46667 21.4446 6.84873 21.8267 7.32001 21.8267H22.68C23.1513 21.8267 23.5333 21.4446 23.5333 20.9733V9.97408L15.5404 16.5138C15.226 16.771 14.774 16.771 14.4596 16.5138L6.46667 9.97408Z" fill="#FF6700"/>
</svg>
